<svg width="44" height="44" viewBox="0 0 44 44" fill="none" xmlns="http://www.w3.org/2000/svg">
<path fill-rule="evenodd" clip-rule="evenodd" d="M0.33606 0.137695H43.8551V43.6577H0.33606V0.137695Z" fill="#F8F54E"/>
<path fill-rule="evenodd" clip-rule="evenodd" d="M2.64501 34.8644L8.32201 40.6514L21.623 27.1564L35.369 40.9294L41.129 35.2254L27.521 21.6194L30.137 19.0874V13.6894L31.779 12.2984V16.5274L33.894 18.2524L40.21 11.9364L42.241 13.4944C43.438 9.0704 36.509 -0.974596 30.777 4.5904L24.098 11.2124L25.462 12.8544L22.067 16.1654L18.784 12.9374L20.509 11.3784L13.191 4.3114C7.68201 -0.224596 2.03301 6.6774 1.83801 13.4104L3.84101 11.7414L9.99001 18.3644L12.188 16.5284V12.4654L13.551 13.4944V18.8094L16.222 21.4804L2.64501 34.8644Z" fill="black"/>
</svg>
